<?xml version="1.0" encoding="UTF-8"?>
<!DOCTYPE svg PUBLIC "-//W3C//DTD SVG 1.1//EN" "http://www.w3.org/Graphics/SVG/1.1/DTD/svg11.dtd">
<svg version="1.1" xmlns="http://www.w3.org/2000/svg" xmlns:xlink="http://www.w3.org/1999/xlink" x="0" y="0" width="512" height="256" viewBox="0, 0, 512, 256">
  <g id="Layer_1">
    <path d="M80.5,128.5 L112.5,128.5" fill-opacity="0" stroke="#FFFFFF" stroke-width="20"/>
    <path d="M112.5,128.5 L208.5,128.5" fill-opacity="0" stroke="#FFFFFF" stroke-width="20"/>
    <path d="M112.5,128.5 L80.5,128.5" fill-opacity="0" stroke="#FFFFFF" stroke-width="20"/>
    <path d="M368,192 C359.163,192 352,184.837 352,176 C352,167.163 359.163,160 368,160 C376.837,160 384,167.163 384,176 C384,184.837 376.837,192 368,192 z" fill="#FFFFFF"/>
    <path d="M368,96 C359.163,96 352,88.837 352,80 C352,71.163 359.163,64 368,64 C376.837,64 384,71.163 384,80 C384,88.837 376.837,96 368,96 z" fill="#FFFFFF"/>
    <path d="M416,144 C407.163,144 400,136.837 400,128 C400,119.163 407.163,112 416,112 C424.837,112 432,119.163 432,128 C432,136.837 424.837,144 416,144 z" fill="#FFFFFF"/>
    <path d="M320,144 C311.163,144 304,136.837 304,128 C304,119.163 311.163,112 320,112 C328.837,112 336,119.163 336,128 C336,136.837 328.837,144 320,144 z" fill="#FFFFFF"/>
    <path d="M144.5,192.5 L144.5,64.5" fill-opacity="0" stroke="#FFFFFF" stroke-width="20"/>
    <path d="M44.5,16.5 L468.5,16.5 C475.127,16.5 480.5,21.873 480.5,28.5 L480.5,228.5 C480.5,235.127 475.127,240.5 468.5,240.5 L44.5,240.5 C37.873,240.5 32.5,235.127 32.5,228.5 L32.5,28.5 C32.5,21.873 37.873,16.5 44.5,16.5 z" fill-opacity="0" stroke="#FFFFFF" stroke-width="10"/>
  </g>
</svg>
